<svg id="visual" viewBox="0 0 1920 1080" width="1920" height="1080" xmlns="http://www.w3.org/2000/svg" xmlns:xlink="http://www.w3.org/1999/xlink" version="1.1"><path d="M0 87L1920 55L1920 0L0 0Z" fill="#e9e6dc"></path><path d="M0 206L1920 120L1920 53L0 85Z" fill="#ded6c3"></path><path d="M0 260L1920 217L1920 118L0 204Z" fill="#d3c6aa"></path><path d="M0 347L1920 217L1920 215L0 258Z" fill="#cab692"></path><path d="M0 357L1920 455L1920 215L0 345Z" fill="#c1a67b"></path><path d="M0 455L1920 476L1920 453L0 355Z" fill="#b89565"></path><path d="M0 552L1920 552L1920 474L0 453Z" fill="#b08450"></path><path d="M0 638L1920 638L1920 550L0 550Z" fill="#a8733b"></path><path d="M0 779L1920 649L1920 636L0 636Z" fill="#a06228"></path><path d="M0 1081L1920 833L1920 647L0 777Z" fill="#975014"></path><path d="M0 1081L1920 1081L1920 831L0 1079Z" fill="#8f3d00"></path></svg>