<svg id="visual" viewBox="0 0 1920 1080" width="1920" height="1080" xmlns="http://www.w3.org/2000/svg" xmlns:xlink="http://www.w3.org/1999/xlink" version="1.1"><path d="M0 66L1920 0L1920 0L0 0Z" fill="#d97757"></path><path d="M0 357L1920 55L1920 0L0 64Z" fill="#ce6f4e"></path><path d="M0 584L1920 530L1920 53L0 355Z" fill="#c36845"></path><path d="M0 703L1920 606L1920 528L0 582Z" fill="#b8613d"></path><path d="M0 768L1920 627L1920 604L0 701Z" fill="#ae5934"></path><path d="M0 768L1920 876L1920 625L0 766Z" fill="#a3522c"></path><path d="M0 779L1920 930L1920 874L0 766Z" fill="#984b24"></path><path d="M0 833L1920 1027L1920 928L0 777Z" fill="#8e441b"></path><path d="M0 1027L1920 1070L1920 1025L0 831Z" fill="#843d12"></path><path d="M0 1059L1920 1081L1920 1068L0 1025Z" fill="#793709"></path><path d="M0 1081L1920 1081L1920 1079L0 1057Z" fill="#6f3000"></path></svg>